<svg width="128" height="64" viewBox="0 0 128 64" fill="none" xmlns="http://www.w3.org/2000/svg">
<rect width="128" height="64" rx="5" fill="#111903"/>
<path d="M33.625 43V39.625H30.25V29.5H33.625V26.125H40.375V29.5H43.75V39.625H40.375V43H33.625ZM33.625 39.49H40.375V29.635H33.625V39.49ZM50.5 43V26.125H53.875V29.5H57.25V32.875H60.625V36.25H57.25V32.875H53.875V43H50.5ZM64 43V32.875H60.625V29.5H64V26.125H67.375V43H64ZM74.125 43V26.125H77.5V43H74.125Z" fill="white"/>
<path d="M94.375 32.875V29.5H84.25V26.125H94.375V29.5H97.75V32.875H94.375ZM94.375 39.625V36.25H87.625V32.875H94.375V36.25H97.75V39.625H94.375ZM84.25 43V39.625H94.375V43H84.25Z" fill="#B0FC31"/>
<path d="M100.812 26.875V26H99.9375V21.625H100.812V20.75H105.188V21.625H106.062V26H105.188V26.875H100.812ZM100.848 26H105.153V21.625H100.848V26ZM101.688 25.125V22.5H104.313V23.375H102.562V24.25H104.313V25.125H101.688Z" fill="white"/>
</svg>
